<?xml version="1.0" encoding="UTF-8"?>
<svg width="227px" height="17px" viewBox="0 0 227 17" version="1.1" xmlns="http://www.w3.org/2000/svg" xmlns:xlink="http://www.w3.org/1999/xlink">
    <!-- Generator: Sketch 46 (44423) - http://www.bohemiancoding.com/sketch -->
    <title>Impressum: Angaben g</title>
    <desc>Created with Sketch.</desc>
    <defs></defs>
    <g id="Page-1" stroke="none" stroke-width="1" fill="none" fill-rule="evenodd">
        <path d="M0.6,12.52 L0.6,1.768 C0.6,1.61866592 0.666666,1.5040004 0.8,1.424 C0.933334,1.3439996 1.09066576,1.304 1.272,1.304 C1.45333424,1.304 1.610666,1.3439996 1.744,1.424 C1.877334,1.5040004 1.944,1.61866592 1.944,1.768 L1.944,12.52 C1.944,12.6693341 1.877334,12.7866662 1.744,12.872 C1.610666,12.9573338 1.45333424,13 1.272,13 C1.09066576,13 0.933334,12.9573338 0.8,12.872 C0.666666,12.7866662 0.6,12.6693341 0.6,12.52 Z M3.944,12.52 L3.944,5.88 C3.944,5.74133264 4.00533272,5.62933376 4.128,5.544 C4.25066728,5.45866624 4.40799904,5.416 4.6,5.416 C4.77066752,5.416 4.91466608,5.45866624 5.032,5.544 C5.14933392,5.62933376 5.208,5.74133264 5.208,5.88 L5.208,6.536 C5.40000096,6.18399824 5.67999816,5.89333448 6.048,5.664 C6.41600184,5.43466552 6.84533088,5.32 7.336,5.32 C7.82666912,5.32 8.26666472,5.4666652 8.656,5.76 C9.04533528,6.0533348 9.33599904,6.4399976 9.528,6.92 C9.794668,6.39733072 10.1466645,6.00000136 10.584,5.728 C11.0213355,5.45599864 11.4799976,5.32 11.96,5.32 C12.7066704,5.32 13.3493306,5.59733056 13.888,6.152 C14.4266694,6.70666944 14.696,7.45332864 14.696,8.392 L14.696,12.52 C14.696,12.6373339 14.629334,12.7466662 14.496,12.848 C14.362666,12.9493338 14.2053342,13 14.024,13 C13.8533325,13 13.701334,12.9493338 13.568,12.848 C13.434666,12.7466662 13.368,12.6373339 13.368,12.52 L13.368,8.392 C13.368,7.81599712 13.2000017,7.36000168 12.864,7.024 C12.5279983,6.68799832 12.1360022,6.52 11.688,6.52 C11.2399978,6.52 10.8426684,6.69066496 10.496,7.032 C10.1493316,7.37333504 9.976,7.810664 9.976,8.344 L9.976,12.536 C9.976,12.6853341 9.909334,12.7999996 9.776,12.88 C9.642666,12.9600004 9.48533424,13 9.304,13 C9.13333248,13 8.981334,12.9600004 8.848,12.88 C8.714666,12.7999996 8.648,12.6853341 8.648,12.536 L8.648,8.36 C8.648,7.826664 8.48533496,7.3866684 8.16,7.04 C7.83466504,6.6933316 7.44266896,6.52 6.984,6.52 C6.52533104,6.52 6.12533504,6.69066496 5.784,7.032 C5.44266496,7.37333504 5.272,7.82666384 5.272,8.392 L5.272,12.52 C5.272,12.6373339 5.205334,12.7466662 5.072,12.848 C4.938666,12.9493338 4.78133424,13 4.6,13 C4.41866576,13 4.26400064,12.9520005 4.136,12.856 C4.00799936,12.7599995 3.944,12.6480006 3.944,12.52 Z M16.536,16.184 L16.536,5.88 C16.536,5.74133264 16.5973327,5.62933376 16.72,5.544 C16.8426673,5.45866624 16.9946658,5.416 17.176,5.416 C17.3573342,5.416 17.5066661,5.45866624 17.624,5.544 C17.7413339,5.62933376 17.8,5.74133264 17.8,5.88 L17.8,6.536 C17.992001,6.19466496 18.2746648,5.90666784 18.648,5.672 C19.0213352,5.43733216 19.4533309,5.32 19.944,5.32 C20.744004,5.32 21.4239972,5.62133032 21.984,6.224 C22.5440028,6.82666968 22.824,7.54932912 22.824,8.392 L22.824,10.024 C22.824,10.8346707 22.5413362,11.5546635 21.976,12.184 C21.4106638,12.8133365 20.7546704,13.128 20.008,13.128 C19.5386643,13.128 19.1093353,13.0080012 18.72,12.768 C18.3306647,12.5279988 18.0453342,12.2320018 17.864,11.88 L17.864,16.184 C17.864,16.3013339 17.797334,16.4106662 17.664,16.512 C17.530666,16.6133338 17.3733342,16.664 17.192,16.664 C17.0106658,16.664 16.8560006,16.6160005 16.728,16.52 C16.5999994,16.4239995 16.536,16.3120006 16.536,16.184 Z M17.864,10.456 C17.864,10.722668 18.0479982,11.0346649 18.416,11.392 C18.7840018,11.7493351 19.2026643,11.928 19.672,11.928 C20.1520024,11.928 20.5759982,11.7333353 20.944,11.344 C21.3120018,10.9546647 21.496,10.5146691 21.496,10.024 L21.496,8.392 C21.496,7.9119976 21.3120018,7.48000192 20.944,7.096 C20.5759982,6.71199808 20.1413358,6.52 19.64,6.52 C19.1706643,6.52 18.7573351,6.6933316 18.4,7.04 C18.0426649,7.3866684 17.864,7.83733056 17.864,8.392 L17.864,10.456 Z M24.424,12.52 L24.424,5.88 C24.424,5.74133264 24.4853327,5.62933376 24.608,5.544 C24.7306673,5.45866624 24.887999,5.416 25.08,5.416 C25.2506675,5.416 25.3946661,5.45866624 25.512,5.544 C25.6293339,5.62933376 25.688,5.74133264 25.688,5.88 L25.688,6.632 C25.880001,6.26933152 26.1626648,5.96000128 26.536,5.704 C26.9093352,5.44799872 27.325331,5.32 27.784,5.32 L28.328,5.32 C28.4666674,5.32 28.5866662,5.38133272 28.688,5.504 C28.7893338,5.62666728 28.84,5.7679992 28.84,5.928 C28.84,6.0880008 28.7893338,6.22666608 28.688,6.344 C28.5866662,6.46133392 28.4666674,6.52 28.328,6.52 L27.784,6.52 C27.2399973,6.52 26.7653354,6.73866448 26.36,7.176 C25.9546646,7.61333552 25.752,8.1786632 25.752,8.872 L25.752,12.52 C25.752,12.6373339 25.685334,12.7466662 25.552,12.848 C25.418666,12.9493338 25.2613342,13 25.08,13 C24.8986658,13 24.7440006,12.9520005 24.616,12.856 C24.4879994,12.7599995 24.424,12.6480006 24.424,12.52 Z M29.4,10.024 L29.4,8.344 C29.4,7.52266256 29.7119969,6.81333632 30.336,6.216 C30.9600031,5.61866368 31.709329,5.32 32.584,5.32 C33.4160042,5.32 34.135997,5.5999972 34.744,6.16 C35.352003,6.7200028 35.656,7.42132912 35.656,8.264 C35.656,8.57333488 35.618667,8.8213324 35.544,9.008 C35.469333,9.1946676 35.3546674,9.3279996 35.2,9.408 C35.0453326,9.4880004 34.901334,9.53866656 34.768,9.56 C34.634666,9.58133344 34.4560011,9.592 34.232,9.592 L30.728,9.592 L30.728,10.072 C30.728,10.6586696 30.9386646,11.1279982 31.36,11.48 C31.7813354,11.8320018 32.3279966,12.008 33,12.008 C33.3520018,12.008 33.6586654,11.9546672 33.92,11.848 C34.1813346,11.7413328 34.3919992,11.6373338 34.552,11.536 C34.7120008,11.4346662 34.8399995,11.384 34.936,11.384 C35.0853341,11.384 35.2133328,11.450666 35.32,11.584 C35.4266672,11.717334 35.48,11.8533326 35.48,11.992 C35.48,12.2373346 35.2373358,12.4879987 34.752,12.744 C34.2666642,13.0000013 33.6666702,13.128 32.952,13.128 C31.9066614,13.128 31.0533366,12.8426695 30.392,12.272 C29.7306634,11.7013305 29.4,10.9520046 29.4,10.024 Z M30.728,8.696 L33.688,8.696 C33.9653347,8.696 34.1519995,8.66133368 34.248,8.592 C34.3440005,8.52266632 34.392,8.38666768 34.392,8.184 C34.392,7.7039976 34.2160018,7.28266848 33.864,6.92 C33.5119982,6.55733152 33.0800026,6.376 32.568,6.376 C32.0666642,6.376 31.6346685,6.54399832 31.272,6.88 C30.9093315,7.21600168 30.728,7.62933088 30.728,8.12 L30.728,8.696 Z M36.664,11.912 C36.664,11.7733326 36.7093329,11.637334 36.8,11.504 C36.8906671,11.370666 36.9999994,11.304 37.128,11.304 C37.2133338,11.304 37.3359992,11.3679994 37.496,11.496 C37.6560008,11.6240006 37.8853318,11.7493327 38.184,11.872 C38.4826682,11.9946673 38.8346646,12.056 39.24,12.056 C39.773336,12.056 40.1599988,11.960001 40.4,11.768 C40.6400012,11.575999 40.76,11.3360014 40.76,11.048 C40.76,10.6959982 40.626668,10.416001 40.36,10.208 C40.093332,9.99999896 39.7680019,9.8426672 39.384,9.736 C38.9999981,9.6293328 38.6160019,9.51200064 38.232,9.384 C37.8479981,9.25599936 37.522668,9.04266816 37.256,8.744 C36.989332,8.44533184 36.856,8.05066912 36.856,7.56 C36.856,6.95199696 37.0719978,6.42666888 37.504,5.984 C37.9360022,5.54133112 38.5946622,5.32 39.48,5.32 C40.0453362,5.32 40.5626643,5.40799912 41.032,5.584 C41.5013357,5.76000088 41.736,5.95999888 41.736,6.184 C41.736,6.31200064 41.6853338,6.4559992 41.584,6.616 C41.4826662,6.7760008 41.3573341,6.856 41.208,6.856 C41.1653331,6.856 40.9600018,6.77866744 40.592,6.624 C40.2239982,6.46933256 39.8586685,6.392 39.496,6.392 C39.0053309,6.392 38.6400012,6.50666552 38.4,6.736 C38.1599988,6.96533448 38.04,7.22399856 38.04,7.512 C38.04,7.81066816 38.173332,8.04533248 38.44,8.216 C38.706668,8.38666752 39.0346647,8.51999952 39.424,8.616 C39.8133353,8.71200048 40.1999981,8.82933264 40.584,8.968 C40.9680019,9.10666736 41.293332,9.34399832 41.56,9.68 C41.826668,10.0160017 41.96,10.450664 41.96,10.984 C41.96,11.6453366 41.7253357,12.1679981 41.256,12.552 C40.7866643,12.9360019 40.1306709,13.128 39.288,13.128 C38.562663,13.128 37.9440026,12.9973346 37.432,12.736 C36.9199974,12.4746654 36.664,12.2000014 36.664,11.912 Z M42.936,11.912 C42.936,11.7733326 42.9813329,11.637334 43.072,11.504 C43.1626671,11.370666 43.2719994,11.304 43.4,11.304 C43.4853338,11.304 43.6079992,11.3679994 43.768,11.496 C43.9280008,11.6240006 44.1573318,11.7493327 44.456,11.872 C44.7546682,11.9946673 45.1066646,12.056 45.512,12.056 C46.045336,12.056 46.4319988,11.960001 46.672,11.768 C46.9120012,11.575999 47.032,11.3360014 47.032,11.048 C47.032,10.6959982 46.898668,10.416001 46.632,10.208 C46.365332,9.99999896 46.0400019,9.8426672 45.656,9.736 C45.2719981,9.6293328 44.8880019,9.51200064 44.504,9.384 C44.1199981,9.25599936 43.794668,9.04266816 43.528,8.744 C43.261332,8.44533184 43.128,8.05066912 43.128,7.56 C43.128,6.95199696 43.3439978,6.42666888 43.776,5.984 C44.2080022,5.54133112 44.8666622,5.32 45.752,5.32 C46.3173362,5.32 46.8346643,5.40799912 47.304,5.584 C47.7733357,5.76000088 48.008,5.95999888 48.008,6.184 C48.008,6.31200064 47.9573338,6.4559992 47.856,6.616 C47.7546662,6.7760008 47.6293341,6.856 47.48,6.856 C47.4373331,6.856 47.2320018,6.77866744 46.864,6.624 C46.4959982,6.46933256 46.1306685,6.392 45.768,6.392 C45.2773309,6.392 44.9120012,6.50666552 44.672,6.736 C44.4319988,6.96533448 44.312,7.22399856 44.312,7.512 C44.312,7.81066816 44.445332,8.04533248 44.712,8.216 C44.978668,8.38666752 45.3066647,8.51999952 45.696,8.616 C46.0853353,8.71200048 46.4719981,8.82933264 46.856,8.968 C47.2400019,9.10666736 47.565332,9.34399832 47.832,9.68 C48.098668,10.0160017 48.232,10.450664 48.232,10.984 C48.232,11.6453366 47.9973357,12.1679981 47.528,12.552 C47.0586643,12.9360019 46.4026709,13.128 45.56,13.128 C44.834663,13.128 44.2160026,12.9973346 43.704,12.736 C43.1919974,12.4746654 42.936,12.2000014 42.936,11.912 Z M49.608,10.056 L49.608,5.896 C49.608,5.76799936 49.674666,5.65600048 49.808,5.56 C49.941334,5.46399952 50.0986658,5.416 50.28,5.416 C50.4506675,5.416 50.602666,5.46666616 50.736,5.568 C50.869334,5.66933384 50.936,5.77866608 50.936,5.896 L50.936,10.056 C50.936,10.5360024 51.1173315,10.9679981 51.48,11.352 C51.8426685,11.7360019 52.2746642,11.928 52.776,11.928 C53.2666691,11.928 53.6933315,11.7386686 54.056,11.36 C54.4186685,10.9813314 54.6,10.5466691 54.6,10.056 L54.6,5.88 C54.6,5.76266608 54.666666,5.65600048 54.8,5.56 C54.933334,5.46399952 55.0906658,5.416 55.272,5.416 C55.464001,5.416 55.6213327,5.46133288 55.744,5.552 C55.8666673,5.64266712 55.928,5.75199936 55.928,5.88 L55.928,10.056 C55.928,10.8773374 55.6160031,11.5946636 54.992,12.208 C54.3679969,12.8213364 53.6293376,13.128 52.776,13.128 C51.9119957,13.128 51.1680031,12.8213364 50.544,12.208 C49.9199969,11.5946636 49.608,10.8773374 49.608,10.056 Z M57.752,12.52 L57.752,5.88 C57.752,5.74133264 57.8133327,5.62933376 57.936,5.544 C58.0586673,5.45866624 58.215999,5.416 58.408,5.416 C58.5786675,5.416 58.7226661,5.45866624 58.84,5.544 C58.9573339,5.62933376 59.016,5.74133264 59.016,5.88 L59.016,6.536 C59.208001,6.18399824 59.4879982,5.89333448 59.856,5.664 C60.2240018,5.43466552 60.6533309,5.32 61.144,5.32 C61.6346691,5.32 62.0746647,5.4666652 62.464,5.76 C62.8533353,6.0533348 63.143999,6.4399976 63.336,6.92 C63.602668,6.39733072 63.9546645,6.00000136 64.392,5.728 C64.8293355,5.45599864 65.2879976,5.32 65.768,5.32 C66.5146704,5.32 67.1573306,5.59733056 67.696,6.152 C68.2346694,6.70666944 68.504,7.45332864 68.504,8.392 L68.504,12.52 C68.504,12.6373339 68.437334,12.7466662 68.304,12.848 C68.170666,12.9493338 68.0133342,13 67.832,13 C67.6613325,13 67.509334,12.9493338 67.376,12.848 C67.242666,12.7466662 67.176,12.6373339 67.176,12.52 L67.176,8.392 C67.176,7.81599712 67.0080017,7.36000168 66.672,7.024 C66.3359983,6.68799832 65.9440022,6.52 65.496,6.52 C65.0479978,6.52 64.6506684,6.69066496 64.304,7.032 C63.9573316,7.37333504 63.784,7.810664 63.784,8.344 L63.784,12.536 C63.784,12.6853341 63.717334,12.7999996 63.584,12.88 C63.450666,12.9600004 63.2933342,13 63.112,13 C62.9413325,13 62.789334,12.9600004 62.656,12.88 C62.522666,12.7999996 62.456,12.6853341 62.456,12.536 L62.456,8.36 C62.456,7.826664 62.293335,7.3866684 61.968,7.04 C61.642665,6.6933316 61.250669,6.52 60.792,6.52 C60.333331,6.52 59.933335,6.69066496 59.592,7.032 C59.250665,7.37333504 59.08,7.82666384 59.08,8.392 L59.08,12.52 C59.08,12.6373339 59.013334,12.7466662 58.88,12.848 C58.746666,12.9493338 58.5893342,13 58.408,13 C58.2266658,13 58.0720006,12.9520005 57.944,12.856 C57.8159994,12.7599995 57.752,12.6480006 57.752,12.52 Z M70.232,12.264 C70.232,12.0293322 70.3119992,11.8293342 70.472,11.664 C70.6320008,11.4986658 70.8293322,11.416 71.064,11.416 C71.2880011,11.416 71.4799992,11.4986658 71.64,11.664 C71.8000008,11.8293342 71.88,12.0293322 71.88,12.264 C71.88,12.4880011 71.8000008,12.6826658 71.64,12.848 C71.4799992,13.0133342 71.2880011,13.096 71.064,13.096 C70.8293322,13.096 70.6320008,13.0133342 70.472,12.848 C70.3119992,12.6826658 70.232,12.4880011 70.232,12.264 Z M70.232,7.096 C70.232,6.86133216 70.3119992,6.66133416 70.472,6.496 C70.6320008,6.33066584 70.8293322,6.248 71.064,6.248 C71.2880011,6.248 71.4799992,6.33066584 71.64,6.496 C71.8000008,6.66133416 71.88,6.86133216 71.88,7.096 C71.88,7.32000112 71.8000008,7.51466584 71.64,7.68 C71.4799992,7.84533416 71.2880011,7.928 71.064,7.928 C70.8293322,7.928 70.6320008,7.84533416 70.472,7.68 C70.3119992,7.51466584 70.232,7.32000112 70.232,7.096 Z M76.2,12.44 C76.2,12.4186666 76.2106666,12.3760003 76.232,12.312 L79.496,1.672 C79.5920005,1.36266512 79.869331,1.208 80.328,1.208 C80.786669,1.208 81.0639995,1.36266512 81.16,1.672 L84.424,12.312 C84.424,12.3333334 84.4266666,12.3546666 84.432,12.376 C84.4373334,12.3973334 84.44,12.4133333 84.44,12.424 C84.44,12.5733341 84.3520009,12.7066661 84.176,12.824 C83.9999991,12.9413339 83.8106677,13 83.608,13 C83.3519987,13 83.1920003,12.8986677 83.128,12.696 L82.424,10.312 L78.216,10.312 L77.512,12.696 C77.4479997,12.8986677 77.282668,13 77.016,13 C76.823999,13 76.6400009,12.9466672 76.464,12.84 C76.2879991,12.7333328 76.2,12.6000008 76.2,12.44 Z M78.52,9.208 L82.104,9.208 L80.328,3.192 L78.52,9.208 Z M85.672,12.52 L85.672,5.88 C85.672,5.74133264 85.7333327,5.62933376 85.856,5.544 C85.9786673,5.45866624 86.135999,5.416 86.328,5.416 C86.4880008,5.416 86.6293327,5.46133288 86.752,5.552 C86.8746673,5.64266712 86.936,5.75199936 86.936,5.88 L86.936,6.536 C87.1066675,6.19466496 87.3813314,5.90666784 87.76,5.672 C88.1386686,5.43733216 88.5786642,5.32 89.08,5.32 C89.8373371,5.32 90.4959972,5.62133032 91.056,6.224 C91.6160028,6.82666968 91.896,7.54932912 91.896,8.392 L91.896,12.52 C91.896,12.6693341 91.829334,12.7866662 91.696,12.872 C91.562666,12.9573338 91.4053342,13 91.224,13 C91.0533325,13 90.901334,12.9573338 90.768,12.872 C90.634666,12.7866662 90.568,12.6693341 90.568,12.52 L90.568,8.392 C90.568,7.9119976 90.3866685,7.48000192 90.024,7.096 C89.6613315,6.71199808 89.2346691,6.52 88.744,6.52 C88.285331,6.52 87.8800018,6.6933316 87.528,7.04 C87.1759982,7.3866684 87,7.83733056 87,8.392 L87,12.52 C87,12.6373339 86.9306674,12.7466662 86.792,12.848 C86.6533326,12.9493338 86.4986675,13 86.328,13 C86.1466658,13 85.9920006,12.9520005 85.864,12.856 C85.7359994,12.7599995 85.672,12.6480006 85.672,12.52 Z M93.128,14.504 C93.128,13.7253294 93.5599957,13.1440019 94.424,12.76 C93.8799973,12.5573323 93.608,12.2000026 93.608,11.688 C93.608,11.1973309 93.874664,10.8026682 94.408,10.504 C93.799997,10.0133309 93.496,9.3413376 93.496,8.488 L93.496,7.96 C93.496,7.18132944 93.7573307,6.54666912 94.28,6.056 C94.8026693,5.56533088 95.4906624,5.32 96.344,5.32 C97.069337,5.32 97.6933307,5.52799792 98.216,5.944 C98.5360016,5.2506632 98.8986646,4.904 99.304,4.904 C99.4746675,4.904 99.6133328,4.95466616 99.72,5.056 C99.8266672,5.15733384 99.88,5.27199936 99.88,5.4 C99.88,5.5600008 99.7893342,5.68266624 99.608,5.768 C99.2453315,5.86400048 98.9573344,6.08799824 98.744,6.44 C99.0746683,6.83466864 99.24,7.34133024 99.24,7.96 L99.24,8.488 C99.24,9.25600384 98.9680027,9.89066416 98.424,10.392 C97.8799973,10.8933358 97.1866709,11.144 96.344,11.144 C95.9066645,11.144 95.5120018,11.0640008 95.16,10.904 C94.893332,11.0640008 94.76,11.2453323 94.76,11.448 C94.76,11.6506677 94.8826654,11.8079994 95.128,11.92 C95.3733346,12.0320006 95.6773315,12.1013332 96.04,12.128 C96.4026685,12.1546668 96.7973312,12.205333 97.224,12.28 C97.6506688,12.354667 98.0453315,12.4506661 98.408,12.568 C98.7706685,12.6853339 99.0746654,12.8933318 99.32,13.192 C99.5653346,13.4906682 99.688,13.869331 99.688,14.328 C99.688,15.0853371 99.3866697,15.663998 98.784,16.064 C98.1813303,16.464002 97.4000048,16.664 96.44,16.664 C95.4799952,16.664 94.6880031,16.4693353 94.064,16.08 C93.4399969,15.6906647 93.128,15.1653366 93.128,14.504 Z M94.392,14.36 C94.392,14.7760021 94.5759982,15.1093321 94.944,15.36 C95.3120018,15.6106679 95.8053302,15.736 96.424,15.736 C97.0213363,15.736 97.4986649,15.6106679 97.856,15.36 C98.2133351,15.1093321 98.392,14.7760021 98.392,14.36 C98.392,14.1893325 98.362667,14.0400006 98.304,13.912 C98.245333,13.7839994 98.1520006,13.6773338 98.024,13.592 C97.8959994,13.5066662 97.7680006,13.434667 97.64,13.376 C97.5119994,13.317333 97.3466677,13.2693335 97.144,13.232 C96.9413323,13.1946665 96.773334,13.1680001 96.64,13.152 C96.506666,13.1359999 96.3306678,13.1173334 96.112,13.096 C95.8933322,13.0746666 95.7413338,13.0586667 95.656,13.048 C94.8133291,13.3253347 94.392,13.7626637 94.392,14.36 Z M94.792,8.472 C94.792,8.98400256 94.9333319,9.40533168 95.216,9.736 C95.4986681,10.0666683 95.8853309,10.232 96.376,10.232 C96.8453357,10.232 97.2239986,10.069335 97.512,9.744 C97.8000014,9.41866504 97.944,9.00000256 97.944,8.488 L97.944,7.96 C97.944,7.46933088 97.8000014,7.05866832 97.512,6.728 C97.2239986,6.39733168 96.8400024,6.232 96.36,6.232 C95.8693309,6.232 95.4853347,6.39466504 95.208,6.72 C94.9306653,7.04533496 94.792,7.45866416 94.792,7.96 L94.792,8.472 Z M100.536,11 C100.536,10.1679958 100.855997,9.58933496 101.496,9.264 C102.136003,8.93866504 103.063994,8.776 104.28,8.776 L105.048,8.776 L105.048,8.44 C105.048,7.906664 104.901335,7.44266864 104.608,7.048 C104.314665,6.65333136 103.87467,6.456 103.288,6.456 C102.839998,6.456 102.445335,6.53333256 102.104,6.688 C101.762665,6.84266744 101.576,6.92 101.544,6.92 C101.394666,6.92 101.274667,6.84800072 101.184,6.704 C101.093333,6.55999928 101.048,6.4080008 101.048,6.248 C101.048,6.00266544 101.290664,5.7866676 101.776,5.6 C102.261336,5.4133324 102.775997,5.32 103.32,5.32 C104.365339,5.32 105.135998,5.61599704 105.632,6.208 C106.128002,6.80000296 106.376,7.53866224 106.376,8.424 L106.376,12.52 C106.376,12.6586674 106.314667,12.7733329 106.192,12.864 C106.069333,12.9546671 105.912001,13 105.72,13 C105.549332,13 105.405334,12.9546671 105.288,12.864 C105.170666,12.7733329 105.112,12.6586674 105.112,12.52 L105.112,11.88 C104.386663,12.7120042 103.581338,13.128 102.696,13.128 C102.055997,13.128 101.536002,12.9466685 101.136,12.584 C100.735998,12.2213315 100.536,11.6933368 100.536,11 Z M101.88,10.856 C101.88,11.2506686 101.991999,11.5493323 102.216,11.752 C102.440001,11.9546677 102.738665,12.056 103.112,12.056 C103.560002,12.056 103.994665,11.8773351 104.416,11.52 C104.837335,11.1626649 105.048,10.7973352 105.048,10.424 L105.048,9.592 L104.488,9.592 C104.178665,9.592 103.912001,9.59999992 103.688,9.616 C103.463999,9.63200008 103.232001,9.66399976 102.992,9.712 C102.751999,9.76000024 102.554667,9.82933288 102.4,9.92 C102.245333,10.0106671 102.12,10.1333326 102.024,10.288 C101.928,10.4426674 101.88,10.6319989 101.88,10.856 Z M108.216,12.52 L108.216,1.304 C108.216,1.16533264 108.277333,1.05333376 108.4,0.968 C108.522667,0.88266624 108.679999,0.84 108.872,0.84 C109.064001,0.84 109.223999,0.88266624 109.352,0.968 C109.480001,1.05333376 109.544,1.16533264 109.544,1.304 L109.544,6.536 C109.736001,6.19466496 110.013332,5.90666784 110.376,5.672 C110.738668,5.43733216 111.159998,5.32 111.64,5.32 C112.418671,5.32 113.090664,5.62133032 113.656,6.224 C114.221336,6.82666968 114.504,7.54932912 114.504,8.392 L114.504,10.024 C114.504,10.8346707 114.221336,11.5546635 113.656,12.184 C113.090664,12.8133365 112.43467,13.128 111.688,13.128 C111.207998,13.128 110.765335,13.0053346 110.36,12.76 C109.954665,12.5146654 109.661334,12.221335 109.48,11.88 L109.48,12.52 C109.48,12.6480006 109.418667,12.7599995 109.296,12.856 C109.173333,12.9520005 109.032001,13 108.872,13 C108.690666,13 108.536001,12.9520005 108.408,12.856 C108.279999,12.7599995 108.216,12.6480006 108.216,12.52 Z M109.544,10.456 C109.544,10.722668 109.730665,11.0346649 110.104,11.392 C110.477335,11.7493351 110.898664,11.928 111.368,11.928 C111.848002,11.928 112.269332,11.7333353 112.632,11.344 C112.994668,10.9546647 113.176,10.5146691 113.176,10.024 L113.176,8.392 C113.176,7.9119976 112.994668,7.48000192 112.632,7.096 C112.269332,6.71199808 111.842669,6.52 111.352,6.52 C110.871998,6.52 110.450668,6.6933316 110.088,7.04 C109.725332,7.3866684 109.544,7.83733056 109.544,8.392 L109.544,10.456 Z M115.816,10.024 L115.816,8.344 C115.816,7.52266256 116.127997,6.81333632 116.752,6.216 C117.376003,5.61866368 118.125329,5.32 119,5.32 C119.832004,5.32 120.551997,5.5999972 121.16,6.16 C121.768003,6.7200028 122.072,7.42132912 122.072,8.264 C122.072,8.57333488 122.034667,8.8213324 121.96,9.008 C121.885333,9.1946676 121.770667,9.3279996 121.616,9.408 C121.461333,9.4880004 121.317334,9.53866656 121.184,9.56 C121.050666,9.58133344 120.872001,9.592 120.648,9.592 L117.144,9.592 L117.144,10.072 C117.144,10.6586696 117.354665,11.1279982 117.776,11.48 C118.197335,11.8320018 118.743997,12.008 119.416,12.008 C119.768002,12.008 120.074665,11.9546672 120.336,11.848 C120.597335,11.7413328 120.807999,11.6373338 120.968,11.536 C121.128001,11.4346662 121.256,11.384 121.352,11.384 C121.501334,11.384 121.629333,11.450666 121.736,11.584 C121.842667,11.717334 121.896,11.8533326 121.896,11.992 C121.896,12.2373346 121.653336,12.4879987 121.168,12.744 C120.682664,13.0000013 120.08267,13.128 119.368,13.128 C118.322661,13.128 117.469337,12.8426695 116.808,12.272 C116.146663,11.7013305 115.816,10.9520046 115.816,10.024 Z M117.144,8.696 L120.104,8.696 C120.381335,8.696 120.568,8.66133368 120.664,8.592 C120.76,8.52266632 120.808,8.38666768 120.808,8.184 C120.808,7.7039976 120.632002,7.28266848 120.28,6.92 C119.927998,6.55733152 119.496003,6.376 118.984,6.376 C118.482664,6.376 118.050668,6.54399832 117.688,6.88 C117.325332,7.21600168 117.144,7.62933088 117.144,8.12 L117.144,8.696 Z M123.544,12.52 L123.544,5.88 C123.544,5.74133264 123.605333,5.62933376 123.728,5.544 C123.850667,5.45866624 124.007999,5.416 124.2,5.416 C124.360001,5.416 124.501333,5.46133288 124.624,5.552 C124.746667,5.64266712 124.808,5.75199936 124.808,5.88 L124.808,6.536 C124.978668,6.19466496 125.253331,5.90666784 125.632,5.672 C126.010669,5.43733216 126.450664,5.32 126.952,5.32 C127.709337,5.32 128.367997,5.62133032 128.928,6.224 C129.488003,6.82666968 129.768,7.54932912 129.768,8.392 L129.768,12.52 C129.768,12.6693341 129.701334,12.7866662 129.568,12.872 C129.434666,12.9573338 129.277334,13 129.096,13 C128.925332,13 128.773334,12.9573338 128.64,12.872 C128.506666,12.7866662 128.44,12.6693341 128.44,12.52 L128.44,8.392 C128.44,7.9119976 128.258668,7.48000192 127.896,7.096 C127.533332,6.71199808 127.106669,6.52 126.616,6.52 C126.157331,6.52 125.752002,6.6933316 125.4,7.04 C125.047998,7.3866684 124.872,7.83733056 124.872,8.392 L124.872,12.52 C124.872,12.6373339 124.802667,12.7466662 124.664,12.848 C124.525333,12.9493338 124.370668,13 124.2,13 C124.018666,13 123.864001,12.9520005 123.736,12.856 C123.607999,12.7599995 123.544,12.6480006 123.544,12.52 Z M134.2,14.504 C134.2,13.7253294 134.631996,13.1440019 135.496,12.76 C134.951997,12.5573323 134.68,12.2000026 134.68,11.688 C134.68,11.1973309 134.946664,10.8026682 135.48,10.504 C134.871997,10.0133309 134.568,9.3413376 134.568,8.488 L134.568,7.96 C134.568,7.18132944 134.829331,6.54666912 135.352,6.056 C135.874669,5.56533088 136.562662,5.32 137.416,5.32 C138.141337,5.32 138.765331,5.52799792 139.288,5.944 C139.608002,5.2506632 139.970665,4.904 140.376,4.904 C140.546668,4.904 140.685333,4.95466616 140.792,5.056 C140.898667,5.15733384 140.952,5.27199936 140.952,5.4 C140.952,5.5600008 140.861334,5.68266624 140.68,5.768 C140.317332,5.86400048 140.029334,6.08799824 139.816,6.44 C140.146668,6.83466864 140.312,7.34133024 140.312,7.96 L140.312,8.488 C140.312,9.25600384 140.040003,9.89066416 139.496,10.392 C138.951997,10.8933358 138.258671,11.144 137.416,11.144 C136.978664,11.144 136.584002,11.0640008 136.232,10.904 C135.965332,11.0640008 135.832,11.2453323 135.832,11.448 C135.832,11.6506677 135.954665,11.8079994 136.2,11.92 C136.445335,12.0320006 136.749332,12.1013332 137.112,12.128 C137.474668,12.1546668 137.869331,12.205333 138.296,12.28 C138.722669,12.354667 139.117332,12.4506661 139.48,12.568 C139.842668,12.6853339 140.146665,12.8933318 140.392,13.192 C140.637335,13.4906682 140.76,13.869331 140.76,14.328 C140.76,15.0853371 140.45867,15.663998 139.856,16.064 C139.25333,16.464002 138.472005,16.664 137.512,16.664 C136.551995,16.664 135.760003,16.4693353 135.136,16.08 C134.511997,15.6906647 134.2,15.1653366 134.2,14.504 Z M135.464,14.36 C135.464,14.7760021 135.647998,15.1093321 136.016,15.36 C136.384002,15.6106679 136.87733,15.736 137.496,15.736 C138.093336,15.736 138.570665,15.6106679 138.928,15.36 C139.285335,15.1093321 139.464,14.7760021 139.464,14.36 C139.464,14.1893325 139.434667,14.0400006 139.376,13.912 C139.317333,13.7839994 139.224001,13.6773338 139.096,13.592 C138.967999,13.5066662 138.840001,13.434667 138.712,13.376 C138.583999,13.317333 138.418668,13.2693335 138.216,13.232 C138.013332,13.1946665 137.845334,13.1680001 137.712,13.152 C137.578666,13.1359999 137.402668,13.1173334 137.184,13.096 C136.965332,13.0746666 136.813334,13.0586667 136.728,13.048 C135.885329,13.3253347 135.464,13.7626637 135.464,14.36 Z M135.864,8.472 C135.864,8.98400256 136.005332,9.40533168 136.288,9.736 C136.570668,10.0666683 136.957331,10.232 137.448,10.232 C137.917336,10.232 138.295999,10.069335 138.584,9.744 C138.872001,9.41866504 139.016,9.00000256 139.016,8.488 L139.016,7.96 C139.016,7.46933088 138.872001,7.05866832 138.584,6.728 C138.295999,6.39733168 137.912002,6.232 137.432,6.232 C136.941331,6.232 136.557335,6.39466504 136.28,6.72 C136.002665,7.04533496 135.864,7.45866416 135.864,7.96 L135.864,8.472 Z M141.816,10.024 L141.816,8.344 C141.816,7.52266256 142.127997,6.81333632 142.752,6.216 C143.376003,5.61866368 144.125329,5.32 145,5.32 C145.832004,5.32 146.551997,5.5999972 147.16,6.16 C147.768003,6.7200028 148.072,7.42132912 148.072,8.264 C148.072,8.57333488 148.034667,8.8213324 147.96,9.008 C147.885333,9.1946676 147.770667,9.3279996 147.616,9.408 C147.461333,9.4880004 147.317334,9.53866656 147.184,9.56 C147.050666,9.58133344 146.872001,9.592 146.648,9.592 L143.144,9.592 L143.144,10.072 C143.144,10.6586696 143.354665,11.1279982 143.776,11.48 C144.197335,11.8320018 144.743997,12.008 145.416,12.008 C145.768002,12.008 146.074665,11.9546672 146.336,11.848 C146.597335,11.7413328 146.807999,11.6373338 146.968,11.536 C147.128001,11.4346662 147.256,11.384 147.352,11.384 C147.501334,11.384 147.629333,11.450666 147.736,11.584 C147.842667,11.717334 147.896,11.8533326 147.896,11.992 C147.896,12.2373346 147.653336,12.4879987 147.168,12.744 C146.682664,13.0000013 146.08267,13.128 145.368,13.128 C144.322661,13.128 143.469337,12.8426695 142.808,12.272 C142.146663,11.7013305 141.816,10.9520046 141.816,10.024 Z M143.144,8.696 L146.104,8.696 C146.381335,8.696 146.568,8.66133368 146.664,8.592 C146.76,8.52266632 146.808,8.38666768 146.808,8.184 C146.808,7.7039976 146.632002,7.28266848 146.28,6.92 C145.927998,6.55733152 145.496003,6.376 144.984,6.376 C144.482664,6.376 144.050668,6.54399832 143.688,6.88 C143.325332,7.21600168 143.144,7.62933088 143.144,8.12 L143.144,8.696 Z M149.544,12.52 L149.544,5.88 C149.544,5.74133264 149.605333,5.62933376 149.728,5.544 C149.850667,5.45866624 150.007999,5.416 150.2,5.416 C150.370668,5.416 150.514666,5.45866624 150.632,5.544 C150.749334,5.62933376 150.808,5.74133264 150.808,5.88 L150.808,6.536 C151.000001,6.18399824 151.279998,5.89333448 151.648,5.664 C152.016002,5.43466552 152.445331,5.32 152.936,5.32 C153.426669,5.32 153.866665,5.4666652 154.256,5.76 C154.645335,6.0533348 154.935999,6.4399976 155.128,6.92 C155.394668,6.39733072 155.746664,6.00000136 156.184,5.728 C156.621336,5.45599864 157.079998,5.32 157.56,5.32 C158.30667,5.32 158.949331,5.59733056 159.488,6.152 C160.026669,6.70666944 160.296,7.45332864 160.296,8.392 L160.296,12.52 C160.296,12.6373339 160.229334,12.7466662 160.096,12.848 C159.962666,12.9493338 159.805334,13 159.624,13 C159.453332,13 159.301334,12.9493338 159.168,12.848 C159.034666,12.7466662 158.968,12.6373339 158.968,12.52 L158.968,8.392 C158.968,7.81599712 158.800002,7.36000168 158.464,7.024 C158.127998,6.68799832 157.736002,6.52 157.288,6.52 C156.839998,6.52 156.442668,6.69066496 156.096,7.032 C155.749332,7.37333504 155.576,7.810664 155.576,8.344 L155.576,12.536 C155.576,12.6853341 155.509334,12.7999996 155.376,12.88 C155.242666,12.9600004 155.085334,13 154.904,13 C154.733332,13 154.581334,12.9600004 154.448,12.88 C154.314666,12.7999996 154.248,12.6853341 154.248,12.536 L154.248,8.36 C154.248,7.826664 154.085335,7.3866684 153.76,7.04 C153.434665,6.6933316 153.042669,6.52 152.584,6.52 C152.125331,6.52 151.725335,6.69066496 151.384,7.032 C151.042665,7.37333504 150.872,7.82666384 150.872,8.392 L150.872,12.52 C150.872,12.6373339 150.805334,12.7466662 150.672,12.848 C150.538666,12.9493338 150.381334,13 150.2,13 C150.018666,13 149.864001,12.9520005 149.736,12.856 C149.607999,12.7599995 149.544,12.6480006 149.544,12.52 Z M161.624,11 C161.624,10.1679958 161.943997,9.58933496 162.584,9.264 C163.224003,8.93866504 164.151994,8.776 165.368,8.776 L166.136,8.776 L166.136,8.44 C166.136,7.906664 165.989335,7.44266864 165.696,7.048 C165.402665,6.65333136 164.96267,6.456 164.376,6.456 C163.927998,6.456 163.533335,6.53333256 163.192,6.688 C162.850665,6.84266744 162.664,6.92 162.632,6.92 C162.482666,6.92 162.362667,6.84800072 162.272,6.704 C162.181333,6.55999928 162.136,6.4080008 162.136,6.248 C162.136,6.00266544 162.378664,5.7866676 162.864,5.6 C163.349336,5.4133324 163.863997,5.32 164.408,5.32 C165.453339,5.32 166.223998,5.61599704 166.72,6.208 C167.216002,6.80000296 167.464,7.53866224 167.464,8.424 L167.464,12.52 C167.464,12.6586674 167.402667,12.7733329 167.28,12.864 C167.157333,12.9546671 167.000001,13 166.808,13 C166.637332,13 166.493334,12.9546671 166.376,12.864 C166.258666,12.7733329 166.2,12.6586674 166.2,12.52 L166.2,11.88 C165.474663,12.7120042 164.669338,13.128 163.784,13.128 C163.143997,13.128 162.624002,12.9466685 162.224,12.584 C161.823998,12.2213315 161.624,11.6933368 161.624,11 Z M162.872,2.92 C162.872,2.73866576 162.935999,2.58400064 163.064,2.456 C163.192001,2.32799936 163.346666,2.264 163.528,2.264 C163.709334,2.264 163.861333,2.32799936 163.984,2.456 C164.106667,2.58400064 164.168,2.73866576 164.168,2.92 C164.168,3.10133424 164.104001,3.258666 163.976,3.392 C163.847999,3.525334 163.698668,3.592 163.528,3.592 C163.346666,3.592 163.192001,3.525334 163.064,3.392 C162.935999,3.258666 162.872,3.10133424 162.872,2.92 Z M162.968,10.856 C162.968,11.2506686 163.079999,11.5493323 163.304,11.752 C163.528001,11.9546677 163.826665,12.056 164.2,12.056 C164.648002,12.056 165.082665,11.8773351 165.504,11.52 C165.925335,11.1626649 166.136,10.7973352 166.136,10.424 L166.136,9.592 L165.576,9.592 C165.266665,9.592 165.000001,9.59999992 164.776,9.616 C164.551999,9.63200008 164.320001,9.66399976 164.08,9.712 C163.839999,9.76000024 163.642667,9.82933288 163.488,9.92 C163.333333,10.0106671 163.208,10.1333326 163.112,10.288 C163.016,10.4426674 162.968,10.6319989 162.968,10.856 Z M164.968,2.92 C164.968,2.73866576 165.029333,2.58400064 165.152,2.456 C165.274667,2.32799936 165.426666,2.264 165.608,2.264 C165.789334,2.264 165.941333,2.32799936 166.064,2.456 C166.186667,2.58400064 166.248,2.73866576 166.248,2.92 C166.248,3.10133424 166.186667,3.258666 166.064,3.392 C165.941333,3.525334 165.789334,3.592 165.608,3.592 C165.426666,3.592 165.274667,3.525334 165.152,3.392 C165.029333,3.258666 164.968,3.10133424 164.968,2.92 Z M168.44,5.944 C168.44,5.80533264 168.477333,5.6826672 168.552,5.576 C168.626667,5.4693328 168.727999,5.416 168.856,5.416 L169.944,5.416 L169.944,3.752 C169.944,2.85599552 170.170664,2.12533616 170.624,1.56 C171.077336,0.99466384 171.783995,0.712 172.744,0.712 C173.586671,0.712 174.269331,0.95733088 174.792,1.448 C175.314669,1.93866912 175.576,2.6639952 175.576,3.624 C175.576,4.2106696 175.477334,4.7573308 175.28,5.264 C175.082666,5.7706692 174.808002,6.10933248 174.456,6.28 C175.04267,6.39733392 175.583998,6.75999696 176.08,7.368 C176.576002,7.97600304 176.824,8.68532928 176.824,9.496 L176.824,9.752 C176.824,10.893339 176.525336,11.7733302 175.928,12.392 C175.330664,13.0106698 174.600004,13.32 173.736,13.32 C172.626661,13.32 172.072,13.0640026 172.072,12.552 C172.072,12.4026659 172.106666,12.2586674 172.176,12.12 C172.245334,11.9813326 172.333333,11.912 172.44,11.912 C172.482667,11.912 172.629332,11.9573329 172.88,12.048 C173.130668,12.1386671 173.383999,12.184 173.64,12.184 C174.237336,12.184 174.703998,11.9813354 175.04,11.576 C175.376002,11.1706646 175.544,10.5893371 175.544,9.832 L175.544,9.592 C175.544,8.8986632 175.349335,8.31733568 174.96,7.848 C174.570665,7.37866432 173.997337,7.09600048 173.24,7 C173.101333,6.97866656 173,6.9546668 172.936,6.928 C172.872,6.9013332 172.813334,6.8480004 172.76,6.768 C172.706666,6.6879996 172.68,6.57866736 172.68,6.44 C172.68,6.30133264 172.709333,6.19466704 172.768,6.12 C172.826667,6.04533296 172.888,5.99733344 172.952,5.976 C173.016,5.95466656 173.117333,5.92800016 173.256,5.896 C174.045337,5.81066624 174.44,5.16533936 174.44,3.96 C174.44,3.3199968 174.304001,2.81866848 174.032,2.456 C173.759999,2.09333152 173.352003,1.912 172.808,1.912 C172.263997,1.912 171.872001,2.0853316 171.632,2.432 C171.391999,2.7786684 171.272,3.218664 171.272,3.752 L171.272,12.536 C171.272,12.6640006 171.205334,12.7733329 171.072,12.864 C170.938666,12.9546671 170.776001,13 170.584,13 C170.402666,13 170.250667,12.9573338 170.128,12.872 C170.005333,12.7866662 169.944,12.6746674 169.944,12.536 L169.944,6.456 L168.856,6.456 C168.727999,6.456 168.626667,6.40533384 168.552,6.304 C168.477333,6.20266616 168.44,6.08266736 168.44,5.944 Z M180.808,1.912 C180.808,1.7519992 180.850666,1.61066728 180.936,1.488 C181.021334,1.36533272 181.138666,1.304 181.288,1.304 L187.8,1.304 C187.949334,1.304 188.066666,1.36533272 188.152,1.488 C188.237334,1.61066728 188.28,1.7519992 188.28,1.912 C188.28,2.08266752 188.237334,2.23199936 188.152,2.36 C188.066666,2.48800064 187.949334,2.552 187.8,2.552 L185.224,2.552 L185.224,12.52 C185.224,12.6693341 185.157334,12.7866662 185.024,12.872 C184.890666,12.9573338 184.733334,13 184.552,13 C184.370666,13 184.213334,12.9573338 184.08,12.872 C183.946666,12.7866662 183.88,12.6693341 183.88,12.52 L183.88,2.552 L181.288,2.552 C181.138666,2.552 181.021334,2.49066728 180.936,2.368 C180.850666,2.24533272 180.808,2.09333424 180.808,1.912 Z M189.64,12.52 L189.64,1.96 C189.64,1.52266448 189.863998,1.304 190.312,1.304 C190.738669,1.304 191.095999,1.58666384 191.384,2.152 L193.896,6.968 L196.424,2.152 C196.733335,1.58666384 197.090665,1.304 197.496,1.304 C197.944002,1.304 198.168,1.52266448 198.168,1.96 L198.168,12.52 C198.168,12.6693341 198.101334,12.7866662 197.968,12.872 C197.834666,12.9573338 197.677334,13 197.496,13 C197.314666,13 197.157334,12.9573338 197.024,12.872 C196.890666,12.7866662 196.824,12.6693341 196.824,12.52 L196.824,4.12 L194.408,8.664 C194.279999,8.90933456 194.104001,9.032 193.88,9.032 C193.677332,9.032 193.512001,8.90933456 193.384,8.664 L190.984,4.056 L190.984,12.52 C190.984,12.6693341 190.917334,12.7866662 190.784,12.872 C190.650666,12.9573338 190.493334,13 190.312,13 C190.130666,13 189.973334,12.9573338 189.84,12.872 C189.706666,12.7866662 189.64,12.6693341 189.64,12.52 Z M200.328,9.608 L200.328,4.792 C200.328,3.58666064 200.639997,2.7040028 201.264,2.144 C201.888003,1.5839972 202.711995,1.304 203.736,1.304 C204.781339,1.304 205.623997,1.56799736 206.264,2.096 C206.904003,2.62400264 207.224,3.3146624 207.224,4.168 C207.224,4.41333456 207.168001,4.58399952 207.056,4.68 C206.943999,4.77600048 206.776001,4.824 206.552,4.824 C206.114664,4.824 205.890667,4.66933488 205.88,4.36 C205.741333,3.1333272 205.03734,2.52 203.768,2.52 C202.37066,2.52 201.672,3.27732576 201.672,4.792 L201.672,9.608 C201.672,11.1226742 202.37066,11.88 203.768,11.88 C204.440003,11.88 204.959998,11.6906686 205.328,11.312 C205.696002,10.9333314 205.88,10.3653371 205.88,9.608 L205.88,7.976 L203.976,7.976 C203.826666,7.976 203.712,7.92000056 203.632,7.808 C203.552,7.69599944 203.512,7.56533408 203.512,7.416 C203.512,7.26666592 203.554666,7.13600056 203.64,7.024 C203.725334,6.91199944 203.837333,6.856 203.976,6.856 L206.76,6.856 C206.909334,6.856 207.024,6.90399952 207.104,7 C207.184,7.09600048 207.224,7.21333264 207.224,7.352 L207.224,9.608 C207.224,10.8133394 206.909336,11.6959972 206.28,12.256 C205.650664,12.8160028 204.813339,13.096 203.768,13.096 C202.722661,13.096 201.888003,12.8160028 201.264,12.256 C200.639997,11.6959972 200.328,10.8133394 200.328,9.608 Z M212.008,11.416 C212.008,11.0319981 212.205331,10.84 212.6,10.84 C212.994669,10.84 213.192,10.9839986 213.192,11.272 C213.192,11.6773354 213.317332,12.0533316 213.568,12.4 C213.818668,12.7466684 214.25333,12.92 214.872,12.92 C215.45867,12.92 215.906665,12.7680015 216.216,12.464 C216.525335,12.1599985 216.68,11.741336 216.68,11.208 C216.68,10.7599978 216.525335,10.402668 216.216,10.136 C215.906665,9.869332 215.533336,9.65866744 215.096,9.504 C214.658664,9.34933256 214.218669,9.17333432 213.776,8.976 C213.333331,8.77866568 212.957335,8.46133552 212.648,8.024 C212.338665,7.58666448 212.184,7.02667008 212.184,6.344 L212.184,4.44 C212.184,3.83199696 212.271999,3.31200216 212.448,2.88 C212.624001,2.44799784 212.863998,2.1253344 213.168,1.912 C213.472002,1.6986656 213.775998,1.54400048 214.08,1.448 C214.384002,1.35199952 214.706665,1.304 215.048,1.304 C215.901338,1.304 216.559998,1.54933088 217.024,2.04 C217.488002,2.53066912 217.72,3.1493296 217.72,3.896 C217.72,4.29066864 217.538668,4.488 217.176,4.488 C216.770665,4.488 216.568,4.30666848 216.568,3.944 C216.568,3.5706648 216.456001,3.22666824 216.232,2.912 C216.007999,2.59733176 215.629336,2.44 215.096,2.44 C214.626664,2.44 214.232002,2.5866652 213.912,2.88 C213.591998,3.1733348 213.432,3.61866368 213.432,4.216 C213.432,4.5893352 213.546666,4.90666536 213.776,5.168 C214.005334,5.42933464 214.287998,5.62133272 214.624,5.744 C214.960002,5.86666728 215.327998,6.01066584 215.728,6.176 C216.128002,6.34133416 216.495998,6.51999904 216.832,6.712 C217.168002,6.90400096 217.450666,7.20266464 217.68,7.608 C217.909334,8.01333536 218.024,8.50399712 218.024,9.08 L218.024,10.968 C218.024,12.0453387 217.733336,12.8319975 217.152,13.328 C216.570664,13.8240025 215.848004,14.072 214.984,14.072 C214.077329,14.072 213.354669,13.8106693 212.816,13.288 C212.277331,12.7653307 212.008,12.141337 212.008,11.416 Z M213.336,6.536 C213.336,6.93066864 213.423999,7.261332 213.6,7.528 C213.776001,7.794668 214.005332,7.99999928 214.288,8.144 C214.570668,8.28800072 214.863998,8.41066616 215.168,8.512 C215.472002,8.61333384 215.786665,8.73866592 216.112,8.888 C216.437335,9.03733408 216.690666,9.20799904 216.872,9.4 L216.872,8.968 C216.872,8.4879976 216.733335,8.09333488 216.456,7.784 C216.178665,7.47466512 215.861335,7.2666672 215.504,7.16 C215.146665,7.0533328 214.749336,6.90933424 214.312,6.728 C213.874664,6.54666576 213.549334,6.34400112 213.336,6.12 L213.336,6.536 Z M219.176,10.328 C219.176,9.9013312 219.399998,9.688 219.848,9.688 C220.296002,9.688 220.52,9.86933152 220.52,10.232 C220.52,10.7440026 220.717331,11.1466652 221.112,11.44 C221.506669,11.7333348 222.007997,11.88 222.616,11.88 C223.288003,11.88 223.807998,11.6933352 224.176,11.32 C224.544002,10.9466648 224.728,10.3866704 224.728,9.64 L224.728,9.336 C224.728,8.61066304 224.544002,8.06400184 224.176,7.696 C223.807998,7.32799816 223.293337,7.144 222.632,7.144 L220.36,7.144 C219.943998,7.144 219.736,6.96800176 219.736,6.616 C219.736,6.5093328 219.746667,6.39200064 219.768,6.264 L220.104,1.784 C220.125333,1.4639984 220.242666,1.304 220.456,1.304 L225.064,1.304 C225.202667,1.304 225.309333,1.36533272 225.384,1.488 C225.458667,1.61066728 225.496,1.7519992 225.496,1.912 C225.496,2.0720008 225.458667,2.21333272 225.384,2.336 C225.309333,2.45866728 225.202667,2.52 225.064,2.52 L221.272,2.52 L221.032,6.024 L222.632,6.024 C223.677339,6.024 224.511997,6.290664 225.136,6.824 C225.760003,7.357336 226.072,8.19466096 226.072,9.336 L226.072,9.64 C226.072,10.8240059 225.757336,11.6959972 225.128,12.256 C224.498664,12.8160028 223.666672,13.096 222.632,13.096 C221.565328,13.096 220.72267,12.8266694 220.104,12.288 C219.48533,11.7493306 219.176,11.0960038 219.176,10.328 Z" id="Impressum:-Angaben-g" fill="#343434"></path>
    </g>
</svg>