<svg xmlns="http://www.w3.org/2000/svg" viewBox="0 0 332.27 301"><defs><style>.cls-1{fill:#dceff4;opacity:0.5;}.cls-2,.cls-5,.cls-6,.cls-7{fill:none;stroke-miterlimit:10;}.cls-2{stroke:#fff;}.cls-2,.cls-6{stroke-width:3px;}.cls-3{fill:#f4a13d;}.cls-4{fill:#fcc574;}.cls-5{stroke:#cc6726;}.cls-5,.cls-7{stroke-width:12px;}.cls-6{stroke:#ceeaff;}.cls-7{stroke:#60341a;}.cls-8{fill:#fff;}</style></defs><title>Asset 280</title><g id="Layer_2" data-name="Layer 2"><g id="Layer_1-2" data-name="Layer 1"><circle class="cls-1" cx="166.22" cy="150.5" r="150.5"/><path class="cls-2" d="M157,204.59"/><rect class="cls-3" x="62.13" y="10.31" width="207.61" height="293.09" rx="38.38" ry="38.38" transform="translate(-29.67 274.65) rotate(-74.45)"/><path class="cls-4" d="M293.78,89.2,91.82,33c-19.79-5.51-35.68-.83-41,8.64l-3,7.52C50.67,38.87,69.17,37.77,89,43.28l202,56.21c19.79,5.51,33.51,18.3,30.65,28.58l2.86-10.29C327.29,107.51,313.57,94.71,293.78,89.2Z"/><line class="cls-5" x1="12.09" y1="201.97" x2="119.78" y2="152.56"/><line class="cls-6" x1="211.68" y1="177.74" x2="280.8" y2="270.36"/><line class="cls-5" x1="209.21" y1="180.69" x2="278.64" y2="276.52"/><path class="cls-7" d="M48.81,43.89s80,121.4,86.65,131.53,15.37,14.45,20.85,16,15.15,2.32,26.1-2.9L325.94,120"/><line class="cls-7" x1="8.09" y1="194.97" x2="115.78" y2="145.56"/><rect class="cls-7" x="62.33" y="9.56" width="207.61" height="293.09" rx="38.38" ry="38.38" transform="matrix(0.27, -0.96, 0.96, 0.27, -28.8, 274.31)"/><line class="cls-7" x1="214.21" y1="173.69" x2="283.64" y2="269.52"/><path class="cls-8" d="M220.39,152.94l74.84-34.35c3.51-1.61.46-6.78-3-5.18l-74.84,34.35c-3.51,1.61-.46,6.78,3,5.18Z"/><path class="cls-8" d="M183.23,169.59,206.4,159c3.51-1.61.46-6.78-3-5.18L180.2,164.41c-3.51,1.61-.46,6.78,3,5.18Z"/></g></g></svg>