<?xml version="1.0" encoding="UTF-8"?>
<svg width="84px" height="20px" viewBox="0 0 84 20" version="1.1" xmlns="http://www.w3.org/2000/svg" xmlns:xlink="http://www.w3.org/1999/xlink">
    <!-- Generator: Sketch 46 (44423) - http://www.bohemiancoding.com/sketch -->
    <title>Impressum</title>
    <desc>Created with Sketch.</desc>
    <defs></defs>
    <g id="Page-1" stroke="none" stroke-width="1" fill="none" fill-rule="evenodd">
        <path d="M0.08,14.48 L0.08,0.86 C0.08,0.5399984 0.2999978,0.38 0.74,0.38 C1.1800022,0.38 1.4,0.5399984 1.4,0.86 L1.4,14.48 C1.4,14.6400008 1.333334,14.7666662 1.2,14.86 C1.066666,14.9533338 0.9133342,15 0.74,15 C0.5533324,15 0.3966673,14.9533338 0.27,14.86 C0.1433327,14.7666662 0.08,14.6400008 0.08,14.48 Z M4.08,14.48 L4.08,6.02 C4.08,5.886666 4.1399994,5.7733338 4.26,5.68 C4.3800006,5.5866662 4.5333324,5.54 4.72,5.54 C4.8933342,5.54 5.0399994,5.5866662 5.16,5.68 C5.2800006,5.7733338 5.34,5.886666 5.34,6.02 L5.34,6.94 C5.5800012,6.4999978 5.9299977,6.1366681 6.39,5.85 C6.8500023,5.5633319 7.3866636,5.42 8,5.42 C8.6400032,5.42 9.2133308,5.6033315 9.72,5.97 C10.2266692,6.3366685 10.5999988,6.819997 10.84,7.42 C11.173335,6.7666634 11.6133306,6.2700017 12.16,5.93 C12.7066694,5.5899983 13.279997,5.42 13.88,5.42 C14.7866712,5.42 15.57333,5.7599966 16.24,6.44 C16.90667,7.1200034 17.24,8.026661 17.24,9.16 L17.24,14.48 C17.24,14.613334 17.1766673,14.7333328 17.05,14.84 C16.9233327,14.9466672 16.7666676,15 16.58,15 C16.4066658,15 16.2566673,14.9466672 16.13,14.84 C16.0033327,14.7333328 15.94,14.613334 15.94,14.48 L15.94,9.16 C15.94,8.3733294 15.7100023,7.7533356 15.25,7.3 C14.7899977,6.8466644 14.260003,6.62 13.66,6.62 C13.0466636,6.62 12.5033357,6.8499977 12.03,7.31 C11.5566643,7.7700023 11.32,8.3599964 11.32,9.08 L11.32,14.5 C11.32,14.833335 11.1000022,15 10.66,15 C10.2333312,15 10.02,14.833335 10.02,14.5 L10.02,9.1 C10.02,8.3933298 9.7966689,7.8033357 9.35,7.33 C8.9033311,6.8566643 8.3666698,6.62 7.74,6.62 C7.1133302,6.62 6.5633357,6.8499977 6.09,7.31 C5.6166643,7.7700023 5.38,8.3866628 5.38,9.16 L5.38,14.48 C5.38,14.613334 5.313334,14.7333328 5.18,14.84 C5.046666,14.9466672 4.8933342,15 4.72,15 C4.5466658,15 4.3966673,14.9466672 4.27,14.84 C4.1433327,14.7333328 4.08,14.613334 4.08,14.48 Z M19.68,19.14 L19.68,6.02 C19.68,5.886666 19.7399994,5.7733338 19.86,5.68 C19.9800006,5.5866662 20.1333324,5.54 20.32,5.54 C20.4933342,5.54 20.6399994,5.5866662 20.76,5.68 C20.8800006,5.7733338 20.94,5.886666 20.94,6.02 L20.94,6.94 C21.1800012,6.5133312 21.533331,6.1533348 22,5.86 C22.466669,5.5666652 23.0066636,5.42 23.62,5.42 C24.6066716,5.42 25.4533298,5.786663 26.16,6.52 C26.8666702,7.253337 27.22,8.1333282 27.22,9.16 L27.22,11.34 C27.22,12.340005 26.8633369,13.2233295 26.15,13.99 C25.4366631,14.7566705 24.613338,15.14 23.68,15.14 C23.0933304,15.14 22.5533358,14.9900015 22.06,14.69 C21.5666642,14.3899985 21.2066678,14.0266688 20.98,13.6 L20.98,19.14 C20.98,19.2600006 20.9166673,19.3733328 20.79,19.48 C20.6633327,19.5866672 20.5066676,19.64 20.32,19.64 C20.1466658,19.64 19.9966673,19.5866672 19.87,19.48 C19.7433327,19.3733328 19.68,19.2600006 19.68,19.14 Z M20.98,11.96 C20.98,12.3200018 21.2299975,12.7399976 21.73,13.22 C22.2300025,13.7000024 22.7999968,13.94 23.44,13.94 C24.0933366,13.94 24.6699975,13.673336 25.17,13.14 C25.6700025,12.606664 25.92,12.00667 25.92,11.34 L25.92,9.16 C25.92,8.5066634 25.6700025,7.9200026 25.17,7.4 C24.6699975,6.8799974 24.0800034,6.62 23.4,6.62 C22.7599968,6.62 22.1966691,6.853331 21.71,7.32 C21.2233309,7.786669 20.98,8.3999962 20.98,9.16 L20.98,11.96 Z M29.36,14.48 L29.36,6.02 C29.36,5.886666 29.4199994,5.7733338 29.54,5.68 C29.6600006,5.5866662 29.8133324,5.54 30,5.54 C30.1733342,5.54 30.3199994,5.5866662 30.44,5.68 C30.5600006,5.7733338 30.62,5.886666 30.62,6.02 L30.62,7 C30.8600012,6.5599978 31.213331,6.1866682 31.68,5.88 C32.146669,5.5733318 32.6866636,5.42 33.3,5.42 L34,5.42 C34.133334,5.42 34.2533328,5.4799994 34.36,5.6 C34.4666672,5.7200006 34.52,5.8599992 34.52,6.02 C34.52,6.1800008 34.4666672,6.3199994 34.36,6.44 C34.2533328,6.5600006 34.133334,6.62 34,6.62 L33.3,6.62 C32.6066632,6.62 31.993336,6.8899973 31.46,7.43 C30.926664,7.9700027 30.66,8.673329 30.66,9.54 L30.66,14.48 C30.66,14.613334 30.5966673,14.7333328 30.47,14.84 C30.3433327,14.9466672 30.1866676,15 30,15 C29.8266658,15 29.6766673,14.9466672 29.55,14.84 C29.4233327,14.7333328 29.36,14.613334 29.36,14.48 Z M35.26,11.34 L35.26,9.1 C35.26,8.099995 35.6333296,7.2366703 36.38,6.51 C37.1266704,5.7833297 38.0266614,5.42 39.08,5.42 C40.0933384,5.42 40.9699963,5.7666632 41.71,6.46 C42.4500037,7.1533368 42.82,8.0199948 42.82,9.06 C42.82,9.4333352 42.7766671,9.7333322 42.69,9.96 C42.6033329,10.1866678 42.4633343,10.3466662 42.27,10.44 C42.0766657,10.5333338 41.9000008,10.5933332 41.74,10.62 C41.5799992,10.6466668 41.3600014,10.66 41.08,10.66 L36.56,10.66 L36.56,11.4 C36.56,12.1866706 36.8433305,12.8166643 37.41,13.29 C37.9766695,13.7633357 38.7066622,14 39.6,14 C40.0533356,14 40.4499983,13.933334 40.79,13.8 C41.1300017,13.666666 41.3899991,13.533334 41.57,13.4 C41.7500009,13.266666 41.8933328,13.2 42,13.2 C42.1466674,13.2 42.2766661,13.2699993 42.39,13.41 C42.5033339,13.5500007 42.56,13.686666 42.56,13.82 C42.56,14.1000014 42.2733362,14.3899985 41.7,14.69 C41.1266638,14.9900015 40.4133376,15.14 39.56,15.14 C38.293327,15.14 37.260004,14.7900035 36.46,14.09 C35.659996,13.3899965 35.26,12.473339 35.26,11.34 Z M36.56,9.7 L40.56,9.7 C40.960002,9.7 41.226666,9.6566671 41.36,9.57 C41.493334,9.4833329 41.56,9.3000014 41.56,9.02 C41.56,8.35333 41.3233357,7.7666692 40.85,7.26 C40.3766643,6.7533308 39.7800036,6.5 39.06,6.5 C38.3666632,6.5 37.7766691,6.7399976 37.29,7.22 C36.8033309,7.7000024 36.56,8.27333 36.56,8.94 L36.56,9.7 Z M44.18,13.7 C44.18,13.566666 44.2266662,13.433334 44.32,13.3 C44.4133338,13.166666 44.5199994,13.1 44.64,13.1 C44.7333338,13.1 44.879999,13.1766659 45.08,13.33 C45.280001,13.4833341 45.5666648,13.6399992 45.94,13.8 C46.3133352,13.9600008 46.7599974,14.04 47.28,14.04 C47.9866702,14.04 48.506665,13.906668 48.84,13.64 C49.173335,13.373332 49.34,13.0333354 49.34,12.62 C49.34,12.1399976 49.1700017,11.7566681 48.83,11.47 C48.4899983,11.1833319 48.0800024,10.973334 47.6,10.84 C47.1199976,10.706666 46.6366691,10.5600008 46.15,10.4 C45.6633309,10.2399992 45.2500017,9.9766685 44.91,9.61 C44.5699983,9.2433315 44.4,8.7533364 44.4,8.14 C44.4,7.406663 44.6633307,6.7700027 45.19,6.23 C45.7166693,5.6899973 46.5066614,5.42 47.56,5.42 C48.2133366,5.42 48.8233305,5.5233323 49.39,5.73 C49.9566695,5.9366677 50.24,6.1599988 50.24,6.4 C50.24,6.533334 50.1866672,6.6799992 50.08,6.84 C49.9733328,7.0000008 49.8466674,7.08 49.7,7.08 C49.6599998,7.08 49.4133356,6.9866676 48.96,6.8 C48.5066644,6.6133324 48.046669,6.52 47.58,6.52 C46.91333,6.52 46.413335,6.6799984 46.08,7 C45.746665,7.3200016 45.58,7.679998 45.58,8.08 C45.58,8.4933354 45.7499983,8.8199988 46.09,9.06 C46.4300017,9.3000012 46.8433309,9.4833327 47.33,9.61 C47.8166691,9.7366673 48.3033309,9.8833325 48.79,10.05 C49.2766691,10.2166675 49.6899983,10.5099979 50.03,10.93 C50.3700017,11.3500021 50.54,11.89333 50.54,12.56 C50.54,13.360004 50.2566695,13.9899977 49.69,14.45 C49.1233305,14.9100023 48.3333384,15.14 47.32,15.14 C46.4399956,15.14 45.6966697,14.9833349 45.09,14.67 C44.4833303,14.3566651 44.18,14.033335 44.18,13.7 Z M51.88,13.7 C51.88,13.566666 51.9266662,13.433334 52.02,13.3 C52.1133338,13.166666 52.2199994,13.1 52.34,13.1 C52.4333338,13.1 52.579999,13.1766659 52.78,13.33 C52.980001,13.4833341 53.2666648,13.6399992 53.64,13.8 C54.0133352,13.9600008 54.4599974,14.04 54.98,14.04 C55.6866702,14.04 56.206665,13.906668 56.54,13.64 C56.873335,13.373332 57.04,13.0333354 57.04,12.62 C57.04,12.1399976 56.8700017,11.7566681 56.53,11.47 C56.1899983,11.1833319 55.7800024,10.973334 55.3,10.84 C54.8199976,10.706666 54.3366691,10.5600008 53.85,10.4 C53.3633309,10.2399992 52.9500017,9.9766685 52.61,9.61 C52.2699983,9.2433315 52.1,8.7533364 52.1,8.14 C52.1,7.406663 52.3633307,6.7700027 52.89,6.23 C53.4166693,5.6899973 54.2066614,5.42 55.26,5.42 C55.9133366,5.42 56.5233305,5.5233323 57.09,5.73 C57.6566695,5.9366677 57.94,6.1599988 57.94,6.4 C57.94,6.533334 57.8866672,6.6799992 57.78,6.84 C57.6733328,7.0000008 57.5466674,7.08 57.4,7.08 C57.3599998,7.08 57.1133356,6.9866676 56.66,6.8 C56.2066644,6.6133324 55.746669,6.52 55.28,6.52 C54.61333,6.52 54.113335,6.6799984 53.78,7 C53.446665,7.3200016 53.28,7.679998 53.28,8.08 C53.28,8.4933354 53.4499983,8.8199988 53.79,9.06 C54.1300017,9.3000012 54.5433309,9.4833327 55.03,9.61 C55.5166691,9.7366673 56.0033309,9.8833325 56.49,10.05 C56.9766691,10.2166675 57.3899983,10.5099979 57.73,10.93 C58.0700017,11.3500021 58.24,11.89333 58.24,12.56 C58.24,13.360004 57.9566695,13.9899977 57.39,14.45 C56.8233305,14.9100023 56.0333384,15.14 55.02,15.14 C54.1399956,15.14 53.3966697,14.9833349 52.79,14.67 C52.1833303,14.3566651 51.88,14.033335 51.88,13.7 Z M60.08,11.38 L60.08,6.04 C60.08,5.9199994 60.1433327,5.8066672 60.27,5.7 C60.3966673,5.5933328 60.5533324,5.54 60.74,5.54 C60.9000008,5.54 61.046666,5.5933328 61.18,5.7 C61.313334,5.8066672 61.38,5.9199994 61.38,6.04 L61.38,11.38 C61.38,12.04667 61.6266642,12.6399974 62.12,13.16 C62.6133358,13.6800026 63.1999966,13.94 63.88,13.94 C64.5600034,13.94 65.1466642,13.6800026 65.64,13.16 C66.1333358,12.6399974 66.38,12.04667 66.38,11.38 L66.38,6.02 C66.38,5.886666 66.446666,5.7733338 66.58,5.68 C66.713334,5.5866662 66.8666658,5.54 67.04,5.54 C67.2133342,5.54 67.3633327,5.5866662 67.49,5.68 C67.6166673,5.7733338 67.68,5.886666 67.68,6.02 L67.68,11.38 C67.68,12.380005 67.3033371,13.2566629 66.55,14.01 C65.7966629,14.7633371 64.9066718,15.14 63.88,15.14 C62.8399948,15.14 61.9466704,14.7633371 61.2,14.01 C60.4533296,13.2566629 60.08,12.380005 60.08,11.38 Z M70.1,14.48 L70.1,6.02 C70.1,5.886666 70.1599994,5.7733338 70.28,5.68 C70.4000006,5.5866662 70.5533324,5.54 70.74,5.54 C70.9133342,5.54 71.0599994,5.5866662 71.18,5.68 C71.3000006,5.7733338 71.36,5.886666 71.36,6.02 L71.36,6.94 C71.6000012,6.4999978 71.9499977,6.1366681 72.41,5.85 C72.8700023,5.5633319 73.4066636,5.42 74.02,5.42 C74.6600032,5.42 75.2333308,5.6033315 75.74,5.97 C76.2466692,6.3366685 76.6199988,6.819997 76.86,7.42 C77.193335,6.7666634 77.6333306,6.2700017 78.18,5.93 C78.7266694,5.5899983 79.299997,5.42 79.9,5.42 C80.8066712,5.42 81.59333,5.7599966 82.26,6.44 C82.92667,7.1200034 83.26,8.026661 83.26,9.16 L83.26,14.48 C83.26,14.613334 83.1966673,14.7333328 83.07,14.84 C82.9433327,14.9466672 82.7866676,15 82.6,15 C82.4266658,15 82.2766673,14.9466672 82.15,14.84 C82.0233327,14.7333328 81.96,14.613334 81.96,14.48 L81.96,9.16 C81.96,8.3733294 81.7300023,7.7533356 81.27,7.3 C80.8099977,6.8466644 80.280003,6.62 79.68,6.62 C79.0666636,6.62 78.5233357,6.8499977 78.05,7.31 C77.5766643,7.7700023 77.34,8.3599964 77.34,9.08 L77.34,14.5 C77.34,14.833335 77.1200022,15 76.68,15 C76.2533312,15 76.04,14.833335 76.04,14.5 L76.04,9.1 C76.04,8.3933298 75.8166689,7.8033357 75.37,7.33 C74.9233311,6.8566643 74.3866698,6.62 73.76,6.62 C73.1333302,6.62 72.5833357,6.8499977 72.11,7.31 C71.6366643,7.7700023 71.4,8.3866628 71.4,9.16 L71.4,14.48 C71.4,14.613334 71.333334,14.7333328 71.2,14.84 C71.066666,14.9466672 70.9133342,15 70.74,15 C70.5666658,15 70.4166673,14.9466672 70.29,14.84 C70.1633327,14.7333328 70.1,14.613334 70.1,14.48 Z" id="Impressum" fill="#FFFFFF"></path>
    </g>
</svg>